<svg width="1024" height="1024" viewBox="0 0 1024 1024" fill="none" xmlns="http://www.w3.org/2000/svg">
<path d="M512 1024C794.77 1024 1024 794.77 1024 512C1024 229.23 794.77 0 512 0C229.23 0 0 229.23 0 512C0 794.77 229.23 1024 512 1024Z" fill="#7B76FC"/>
<svg xmlns="http://www.w3.org/2000/svg" width="960.227" height="286.83" viewBox="0 0 960.227 286.83">
  <g id="Group_36214" data-name="Group 36214" transform="translate(-6713 -5880.585)">
    <g id="Group_35134" data-name="Group 35134" transform="translate(7388.908 5880.585)">
      <path id="Path_24662" data-name="Path 24662" d="M-678.8,487.718c.666-24,9.005-46.686,27.682-65.1,24.347-24.329,48.7-48,73.043-72,7.337-7.233,15.342-5.26,18.345,4.6,5.671,17.755,11.006,35.837,16.677,53.591,2,5.918.667,9.863-3.67,14.137-19.345,18.74-38.689,37.81-58.034,56.878-7.671,7.563-7.671,12.165,0,19.727,19.011,18.74,38.355,37.809,57.7,56.548,4.67,4.6,5.669,8.878,3.668,15.125-5.67,17.753-11.007,35.509-16.677,53.59-2.667,8.549-11.006,10.852-17.676,4.6-25.014-24.659-50.362-48.989-75.043-73.975C-669.462,538.35-678.8,514.021-678.8,487.718Z" transform="translate(826.464 -346.272)" fill="#7b76fc"/>
      <path id="Path_24663" data-name="Path 24663" d="M-691.437,491.656c-.667,24-9.007,46.687-27.682,65.1-24.349,24.33-48.7,48-73.045,72-7.338,7.233-15.34,5.262-18.345-4.6-5.669-17.752-11.005-35.834-16.676-53.59-2-5.918-.667-9.863,3.671-14.137,19.344-18.74,38.689-37.81,58.034-56.879,7.671-7.562,7.671-12.165,0-19.726-19.012-18.74-38.356-37.81-57.7-56.55-4.67-4.6-5.67-8.877-3.67-15.124,5.671-17.755,11.006-35.509,16.678-53.591,2.668-8.548,11.006-10.85,17.676-4.6,25.014,24.658,50.361,48.988,75.043,73.975C-700.777,441.353-691.437,465.682-691.437,491.656Z" transform="translate(828.093 -346.273)" fill="#7b76fc"/>
    </g>
    <g id="Group_35135" data-name="Group 35135" transform="translate(6713 5912.367)">
      <path id="Path_24664" data-name="Path 24664" d="M-348.081,760.47c8.869,5.436,17.815,10.92,26.716,16.377-13.458,29.032-61.08,48.879-99.566,41.846-45.218-8.264-77.536-43.335-80.978-85.87-4.344-53.679,27.358-90.7,65.336-103.082,43.105-14.048,93.151,1.8,115.808,37.733l-27.171,16.742c-31.833-39.223-80.633-31.627-102.276-8.9-24.985,26.235-24.718,68.936.623,94.543C-426.786,792.906-378.6,798.691-348.081,760.47Z" transform="translate(502.309 -620.339)" fill="#fff"/>
      <path id="Path_24665" data-name="Path 24665" d="M-166.6,674.73V657.842h30.648c.159,2.266.479,4.679.481,7.093.03,41.016-.139,82.031.176,123.042.054,7.014-2.01,9.4-8.95,8.887-7.109-.529-14.289-.117-21.826-.117-.333-6.369-.6-11.482-.888-16.964-38.614,27.093-74.292,26.115-98.8-2.252-24.452-28.3-23.973-75.423,1.036-102.219C-238.821,647.562-203.809,647.037-166.6,674.73Zm.1,52.3c.04-24.673-18-43.2-42.191-43.329-24.639-.126-43.281,18.372-43.446,43.112-.163,24.564,18.4,43.192,43.238,43.38C-185.016,770.375-166.548,751.574-166.508,727.031Z" transform="translate(649.76 -600.385)" fill="#fff"/>
      <path id="Path_24666" data-name="Path 24666" d="M-246.053,818.371c-8.7,0-17-.052-25.306.019-5.823.048-4.858-4.208-4.867-7.657-.052-21.756.1-43.515-.082-65.269-.046-5.53-.331-11.253-1.777-16.54-4.537-16.6-19.761-25.594-38.436-23.353-17.9,2.148-30.62,15.537-30.95,33.716-.417,22.866-.132,45.744-.149,68.616,0,3.029,0,6.057,0,10.389-9.333,0-18.116.182-26.872-.2-1.323-.059-3.02-2.554-3.656-4.254-.645-1.721-.212-3.853-.214-5.805q-.005-88.282.017-176.566c0-2.991.251-5.982.4-9.392h30.308v74.93c12.68-14.269,26.926-20.662,43.748-21.345,34.953-1.424,58.073,20.188,58.393,55.068.246,26.775.057,53.555.019,80.332C-245.479,813.224-245.809,815.383-246.053,818.371Z" transform="translate(585.851 -622.079)" fill="#fff"/>
      <path id="Path_24667" data-name="Path 24667" d="M-156.569,634.735h31.012V670.2h38.962v28.221h-38.835v46.516c0,5.859-.072,11.721.012,17.578.209,14.651,7.56,21.682,22.09,20.554,5.458-.421,10.824-2.039,17.184-3.3,0,8.126.327,16.175-.231,24.164-.139,2-2.772,4.785-4.864,5.545-14.122,5.141-28.508,5.421-42.441-.392-14.013-5.848-21.067-17.47-21.658-32.134-.906-22.566-.667-45.176-.9-67.767-.034-3.289-.005-6.577-.005-10.681h-22.871V670.517h22.546Z" transform="translate(720.396 -613.539)" fill="#fff"/>
    </g>
  </g>
</svg>
</svg>
